<svg width="2450" height="400" viewBox="0 0 2450 400" fill="none" xmlns="http://www.w3.org/2000/svg">
<path d="M559.79 125.699V175.35H639.86V221.503H559.79V275.35H650.35V323.252H500V77.7972H650.35V125.699H559.79Z" fill="black"/>
<path d="M843.012 175.699V225.35H689.166V175.699H843.012Z" fill="black"/>
<path d="M1176.96 77.7972V323.252H1117.17V176.049L1062.27 323.252H1014.02L958.774 175.699V323.252H898.984V77.7972H969.613L1038.49 247.727L1106.68 77.7972H1176.96Z" fill="black"/>
<path d="M1283.24 125.699V175.35H1363.31V221.503H1283.24V275.35H1373.8V323.252H1223.45V77.7972H1373.8V125.699H1283.24Z" fill="black"/>
<path d="M1508.07 77.7972C1533.94 77.7972 1556.55 82.9254 1575.9 93.1818C1595.25 103.438 1610.17 117.89 1620.66 136.538C1631.38 154.953 1636.74 176.282 1636.74 200.524C1636.74 224.534 1631.38 245.862 1620.66 264.51C1610.17 283.158 1595.13 297.611 1575.55 307.867C1556.2 318.124 1533.71 323.252 1508.07 323.252H1416.11V77.7972H1508.07ZM1504.22 271.503C1526.83 271.503 1544.43 265.326 1557.02 252.972C1569.61 240.618 1575.9 223.135 1575.9 200.524C1575.9 177.914 1569.61 160.315 1557.02 147.727C1544.43 135.14 1526.83 128.846 1504.22 128.846H1475.9V271.503H1504.22Z" fill="black"/>
<path d="M1733.44 77.7972V323.252H1673.65V77.7972H1733.44Z" fill="black"/>
<path d="M1770.13 200.175C1770.13 175.932 1775.37 154.371 1785.86 135.49C1796.35 116.375 1810.92 101.573 1829.57 91.0839C1848.45 80.3613 1869.78 75 1893.55 75C1922.69 75 1947.63 82.6923 1968.38 98.0769C1989.12 113.462 2002.99 134.441 2009.99 161.014H1944.25C1939.36 150.758 1932.36 142.949 1923.27 137.587C1914.42 132.226 1904.28 129.545 1892.85 129.545C1874.44 129.545 1859.52 135.956 1848.1 148.776C1836.68 161.597 1830.97 178.73 1830.97 200.175C1830.97 221.62 1836.68 238.753 1848.1 251.573C1859.52 264.394 1874.44 270.804 1892.85 270.804C1904.28 270.804 1914.42 268.124 1923.27 262.762C1932.36 257.401 1939.36 249.592 1944.25 239.336H2009.99C2002.99 265.909 1989.12 286.888 1968.38 302.273C1947.63 317.424 1922.69 325 1893.55 325C1869.78 325 1848.45 319.755 1829.57 309.266C1810.92 298.543 1796.35 283.741 1785.86 264.86C1775.37 245.979 1770.13 224.417 1770.13 200.175Z" fill="black"/>
<path d="M2202.9 279.895H2111.29L2096.6 323.252H2034.01L2122.83 77.7972H2192.06L2280.87 323.252H2217.58L2202.9 279.895ZM2187.51 233.741L2157.09 143.881L2127.02 233.741H2187.51Z" fill="black"/>
<path d="M2371.18 277.098H2449.51V323.252H2311.39V77.7972H2371.18V277.098Z" fill="black"/>
<path fill-rule="evenodd" clip-rule="evenodd" d="M85.5274 35.9787C71.2208 45.9823 58.2838 57.8098 47.0532 71.124C92.9463 66.8633 151.252 73.8205 218.944 107.667C291.23 143.809 349.438 145.031 389.948 137.217C386.272 126.088 381.644 115.392 376.163 105.224C329.79 110.115 270.34 103.641 201.056 68.9998C157.06 47.0018 118.278 37.9401 85.5274 35.9787ZM349.074 66.6665C312.453 25.75 259.234 0 200 0C182.605 0 165.727 2.22107 149.637 6.39481C171.429 12.3409 194.579 21.0399 218.944 33.2227C269.67 58.5853 313.464 66.7516 349.074 66.6665ZM398.609 176.281C349.669 185.945 282.088 183.96 201.056 143.444C125.3 105.566 65.0044 106.043 24.339 115.08C22.24 115.546 20.1904 116.036 18.1903 116.546C12.8662 128.125 8.61635 140.301 5.56703 152.945C8.82387 152.075 12.1893 151.248 15.6616 150.476C64.9958 139.513 134.701 139.989 218.944 182.111C294.701 219.989 354.996 219.512 395.662 210.475C397.055 210.166 398.428 209.846 399.778 209.516C399.926 206.363 400 203.19 400 200C400 191.975 399.528 184.06 398.609 176.281ZM393.248 251.723C344.783 260.196 279.17 256.944 201.056 217.888C125.3 180.01 65.0044 180.487 24.339 189.524C15.3125 191.529 7.1924 193.972 0.0293 196.551C0.00977001 197.698 0 198.848 0 200C0 310.457 89.543 400 200 400C292.571 400 370.453 337.109 393.248 251.723Z" fill="black"/>
</svg>
